#!OML:ASF E:\emotionWalksFemale\Project 1\Capture day 1\Session 1\Female1.ASF
:FULLY-SPECIFIED
:DEGREES
391
root 9.17954 15.468 -11.895 -185.076 -6.55072 -177.779
lowerback 6.21444 1.33291 1.63102
upperback -4.38053 1.81779 -0.642113
thorax -8.02398 0.742714 -1.82336
lowerneck -7.54887 -5.10189 -7.12394
upperneck 4.94393 -6.45492 5.2356
head 3.4391 -3.16261 2.66189
rclavicle 5.06901e-015 -1.27222e-014
rhumerus -55.2155 -5.2178 -75.0797
rradius 32.9194
rwrist 20.6612
rhand -14.5848 -54.3196
rfingers 7.12502
rthumb 11.5651 -83.9805
lclavicle 5.06901e-015 -1.27222e-014
lhumerus -66.9928 20.9882 43.3492
lradius 26.4496
lwrist -30.8377
lhand -2.61238 -39.1576
lfingers 7.12502
lthumb 23.0859 -10.5206
rfemur 5.75792 15.6587 31.4281
rtibia 14.9475
rfoot -19.9889 -32.9938
rtoes -14.7844
lfemur -2.27392 -18.7163 -25.542
ltibia 27.1192
lfoot -25.0763 20.4349
ltoes -35.7591
392
root 9.17901 15.4682 -11.9174 -184.993 -6.92757 -177.881
lowerback 6.15502 1.17487 1.41847
upperback -4.43156 1.57353 -0.725947
thorax -8.05741 0.629731 -1.76019
lowerneck -7.38374 -5.05825 -6.88392
upperneck 4.48288 -6.42027 5.24852
head 3.2336 -3.14151 2.62707
rclavicle 5.1684e-015 7.95139e-015
rhumerus -56.0986 -4.27815 -75.658
rradius 32.771
rwrist 20.7701
rhand -14.2162 -54.056
rfingers 7.12502
rthumb 11.9206 -83.6967
lclavicle 5.1684e-015 7.95139e-015
lhumerus -68.1862 18.7847 44.4939
lradius 26.9094
lwrist -36.163
lhand -2.48927 -40.5719
lfingers 7.12502
lthumb 23.204 -11.9497
rfemur 5.98943 15.8611 31.3933
rtibia 14.5682
rfoot -19.4909 -33.1293
rtoes -13.3764
lfemur -2.28354 -19.1623 -25.7433
ltibia 27.079
lfoot -24.5734 20.0112
ltoes -34.6338
393
root 9.17988 15.467 -11.9352 -185.053 -7.2845 -177.999
lowerback 6.4018 1.03981 1.15979
upperback -4.48839 1.36317 -0.789238
thorax -8.27571 0.535549 -1.66155
lowerneck -6.72814 -4.91649 -7.04657
upperneck 3.69057 -6.26875 5.72353
head 2.85733 -3.06342 2.84191
rclavicle 1.03368e-014 3.18055e-015
rhumerus -56.9773 -3.03293 -76.3856
rradius 32.7196
rwrist 21.9527
rhand -13.6076 -53.488
rfingers 7.12502
rthumb 12.5075 -83.0937
lclavicle 1.03368e-014 3.18055e-015
lhumerus -69.0923 16.2465 46.9349
lradius 27.8148
lwrist -37.9817
lhand -3.14785 -40.3075
lfingers 7.12502
lthumb 22.5721 -11.6071
rfemur 6.30894 16.0606 31.3789
rtibia 14.2827
rfoot -19.1335 -33.2685
rtoes -10.8965
lfemur -2.11685 -19.5353 -26.007
ltibia 27.0072
lfoot -23.7376 20.0333
ltoes -33.7398
394
root 9.18207 15.4673 -11.9465 -185.116 -7.53307 -177.951
lowerback 6.73949 0.96526 1.03108
upperback -4.49016 1.25736 -0.776315
thorax -8.48244 0.490664 -1.56944
lowerneck -7.46897 -5.06021 -6.91624
upperneck 4.01599 -6.42673 5.5742
head 3.10707 -3.13462 2.74358
rclavicle -1.61016e-014 -5.56597e-015
rhumerus -57.8038 -1.68268 -77.148
rradius 33.0282
rwrist 23.9954
rhand -12.27 -52.7994
rfingers 7.12502
rthumb 13.7968 -82.3219
lclavicle -1.61016e-014 -5.56597e-015
lhumerus -69.7236 13.4878 50.4432
lradius 28.6209
lwrist -37.1402
lhand -6.18869 -40.2309
lfingers 7.12502
lthumb 19.651 -11.2041
rfemur 6.52556 16.1756 31.4937
rtibia 14.0186
rfoot -18.6655 -33.4008
rtoes -8.33182
lfemur -1.99715 -19.8373 -26.0687
ltibia 26.9492
lfoot -22.698 20.405
ltoes -33.5352
395
root 9.18448 15.4687 -11.9563 -185.163 -7.72374 -177.75
lowerback 7.00737 0.953253 1.05898
upperback -4.38256 1.26597 -0.653267
thorax -8.52489 0.501526 -1.46112
lowerneck -6.95408 -4.97642 -7.69581
upperneck 2.75692 -6.30354 6.55239
head 2.65574 -3.06746 3.24608
rclavicle 2.60408e-014 -3.18055e-015
rhumerus -58.4808 -0.269868 -77.814
rradius 33.6136
rwrist 26.3522
rhand -10.1723 -52.1553
rfingers 7.12502
rthumb 15.8177 -81.5291
lclavicle 2.60408e-014 -3.18055e-015
lhumerus -70.0057 10.6052 55.1512
lradius 29.967
lwrist -31.8656
lhand -6.63168 -38.5759
lfingers 7.12502
lthumb 19.225 -9.50615
rfemur 6.71674 16.2979 31.7455
rtibia 13.6562
rfoot -18.065 -33.5274
rtoes -6.14763
lfemur -1.98332 -20.0806 -25.9289
ltibia 26.9797
lfoot -22.1462 20.4849
ltoes -32.7426
396
root 9.18663 15.4673 -11.9656 -185.277 -7.89425 -177.552
lowerback 7.31111 0.95176 1.08019
upperback -4.27232 1.28935 -0.517126
thorax -8.58552 0.520076 -1.33801
lowerneck -7.60531 -5.25028 -7.5557
upperneck 2.96106 -6.60912 6.01585
head 2.83764 -3.22098 3.0028
rclavicle 1.36167e-014 -1.70955e-014
rhumerus -59.1843 1.17989 -78.5579
rradius 34.2542
rwrist 28.2541
rhand -8.44467 -51.6845
rfingers 7.12502
rthumb 17.4809 -80.9185
lclavicle 1.36167e-014 -1.70955e-014
lhumerus -70.4674 8.07603 59.3467
lradius 31.0994
lwrist -26.2404
lhand -7.08504 -37.8927
lfingers 7.12502
lthumb 18.789 -8.78019
rfemur 7.01712 16.4036 32.0173
rtibia 13.2739
rfoot -17.7007 -33.5629
rtoes -4.14711
lfemur -1.93165 -20.2257 -25.7942
ltibia 27.0603
lfoot -21.8744 20.325
ltoes -31.5277
397
root 9.18841 15.464 -11.9722 -185.503 -8.08899 -177.405
lowerback 7.73118 0.984964 1.13518
upperback -4.22448 1.35567 -0.46265
thorax -8.7785 0.551745 -1.33017
lowerneck -7.77837 -5.4843 -7.66407
upperneck 3.11592 -6.89282 5.88005
head 2.9431 -3.36423 2.95453
rclavicle -1.73937e-014 1.27222e-014
rhumerus -60.059 2.46156 -79.3815
rradius 34.6975
rwrist 29.8335
rhand -7.77471 -51.08
rfingers 7.12502
rthumb 18.1256 -80.2555
lclavicle -1.73937e-014 1.27222e-014
lhumerus -71.1873 5.77498 62.8335
lradius 32.3187
lwrist -21.3027
lhand -6.8908 -37.8574
lfingers 7.12502
lthumb 18.9758 -8.76304
rfemur 7.37175 16.2035 32.2066
rtibia 13.0385
rfoot -17.6371 -33.3633
rtoes -2.68471
lfemur -1.73187 -20.3147 -25.7478
ltibia 27.1062
lfoot -21.614 20.2056
ltoes -31.0263
398
root 9.18984 15.4637 -11.9764 -185.718 -8.29567 -177.383
lowerback 8.13257 1.03224 1.0702
upperback -4.1815 1.42188 -0.456765
thorax -8.96748 0.588271 -1.30669
lowerneck -7.9454 -5.65199 -7.70828
upperneck 3.34096 -7.09712 5.75936
head 3.06336 -3.4672 2.90379
rclavicle 1.02374e-014 9.93923e-015
rhumerus -60.9022 3.71073 -80.2553
rradius 34.9368
rwrist 31.3735
rhand -7.09888 -50.3614
rfingers 7.12502
rthumb 18.7757 -79.4752
lclavicle 1.02374e-014 9.93923e-015
lhumerus -71.9103 3.93911 65.6189
lradius 33.5059
lwrist -17.575
lhand -6.12156 -37.7538
lfingers 7.12502
lthumb 19.7155 -8.73364
rfemur 7.62141 15.8597 32.2192
rtibia 13.0007
rfoot -17.8131 -33.0933
rtoes -1.10812
lfemur -1.48036 -20.4546 -25.8277
ltibia 27.0949
lfoot -21.7357 19.9976
ltoes -30.0213
399
root 9.18792 15.4671 -11.9812 -185.78 -8.43241 -177.56
lowerback 8.37152 1.12868 0.831467
upperback -4.19056 1.52258 -0.497082
thorax -9.12006 0.648887 -1.23744
lowerneck -7.69959 -5.77349 -7.72404
upperneck 3.19552 -7.26171 5.62945
head 2.97257 -3.55535 2.85645
rclavicle -3.08116e-014 -3.97569e-015
rhumerus -61.7316 4.7508 -80.9417
rradius 35.2063
rwrist 32.7616
rhand -5.87226 -49.841
rfingers 7.12502
rthumb 19.9551 -78.8364
lclavicle -3.08116e-014 -3.97569e-015
lhumerus -72.5027 2.8078 67.3875
lradius 34.344
lwrist -15.3581
lhand -4.98192 -37.7221
lfingers 7.12502
lthumb 20.8108 -8.8182
rfemur 7.66466 15.648 31.9832
rtibia 13.1376
rfoot -18.0198 -32.8743
rtoes 0.322649
lfemur -1.32939 -20.5785 -26.0764
ltibia 27.0317
lfoot -21.9007 19.7979
ltoes -29.0296
400
root 9.1842 15.4689 -11.9865 -185.713 -8.50519 -177.799
lowerback 8.38845 1.24016 0.549071
upperback -4.24658 1.6308 -0.545033
thorax -9.19487 0.714743 -1.1484
lowerneck -6.91376 -5.81419 -8.01646
upperneck 2.69108 -7.34671 5.87564
head 2.6877 -3.60395 3.00958
rclavicle 1.5207e-014 1.19271e-014
rhumerus -62.4621 5.70804 -81.5712
rradius 35.3944
rwrist 33.492
rhand -5.16188 -49.6484
rfingers 7.12502
rthumb 20.6379 -78.5712
lclavicle 1.5207e-014 1.19271e-014
lhumerus -72.9706 2.28394 68.2733
lradius 34.9025
lwrist -14.3349
lhand -3.39733 -37.4322
lfingers 7.12502
lthumb 22.3326 -8.70288
rfemur 7.57135 15.4844 31.6565
rtibia 13.3382
rfoot -18.0088 -32.63
rtoes 0.421298
lfemur -1.28843 -20.7428 -26.3666
ltibia 26.9546
lfoot -21.7105 19.8646
ltoes -29.8095
401
root 9.18193 15.472 -11.9922 -185.546 -8.50775 -177.914
lowerback 8.13296 1.3573 0.393096
upperback -4.26454 1.76404 -0.55752
thorax -9.06538 0.788485 -1.08818
lowerneck -6.66013 -5.88033 -8.21939
upperneck 2.69316 -7.4384 5.94742
head 2.66283 -3.65294 3.07251
rclavicle -1.6201e-014 -7.15625e-015
rhumerus -62.9333 6.74204 -82.3268
rradius 35.3876
rwrist 33.3508
rhand -4.83336 -49.692
rfingers 7.12502
rthumb 20.9535 -78.5802
lclavicle -1.6201e-014 -7.15625e-015
lhumerus -73.2463 1.9673 68.877
lradius 35.3624
lwrist -13.7823
lhand -1.54824 -36.8878
lfingers 7.12502
lthumb 24.1066 -8.38224
rfemur 7.37056 15.4582 31.4653
rtibia 13.536
rfoot -17.6638 -32.4555
rtoes -0.465701
lfemur -1.35906 -20.9892 -26.4799
ltibia 26.8891
lfoot -21.5331 20.104
ltoes -30.8141
402
root 9.18115 15.4762 -12.0011 -185.421 -8.44345 -177.827
lowerback 7.7896 1.48588 0.430982
upperback -4.23109 1.94348 -0.50825
thorax -8.8239 0.877409 -1.07373
lowerneck -7.03859 -6.06573 -8.22374
upperneck 3.26695 -7.64838 5.62016
head 2.92787 -3.76132 2.93579
rclavicle 2.75317e-014 -8.34896e-015
rhumerus -63.2031 7.67336 -82.9884
rradius 35.2517
rwrist 32.8967
rhand -4.30204 -49.5917
rfingers 7.12502
rthumb 21.4639 -78.4226
lclavicle 2.75317e-014 -8.34896e-015
lhumerus -73.4779 1.64636 69.5036
lradius 35.9586
lwrist -13.317
lhand -0.053082 -36.4649
lfingers 7.12502
lthumb 25.5395 -8.1569
rfemur 7.18575 15.7143 31.5604
rtibia 13.7277
rfoot -17.1749 -32.6346
rtoes -1.84829
lfemur -1.42912 -21.0858 -26.3344
ltibia 26.8455
lfoot -21.5869 20.2419
ltoes -30.6298
